<?xml version="1.0" encoding="utf-8"?>
<!-- Generator: Adobe Illustrator 16.0.0, SVG Export Plug-In . SVG Version: 6.00 Build 0)  -->
<!DOCTYPE svg PUBLIC "-//W3C//DTD SVG 1.1//EN" "http://www.w3.org/Graphics/SVG/1.1/DTD/svg11.dtd">
<svg version="1.1" id="Layer_1" xmlns="http://www.w3.org/2000/svg" xmlns:xlink="http://www.w3.org/1999/xlink" x="0px" y="0px"
	 width="834px" height="132px" viewBox="133.468 455.716 834 132" enable-background="new 133.468 455.716 834 132"
	 xml:space="preserve">
<g id="img_p_logo_2_" transform="translate(-77 -122.953)">
	<g id="그룹_381_2_">
		<path id="패스_2713_2_" fill="#FFFFFF" d="M448.205,134.079v-10.604h-2.57V136.2h11.033v-2.125h-8.463V134.079L448.205,134.079z
			"/>
		<path id="패스_2714_2_" fill="#FFFFFF" d="M419.924,134.126h-8.162v-3.634h7.688v-2.078h-7.688v-2.897h7.926v-2.078h-10.492
			V136.2h10.73v-2.074H419.924z"/>
		<path id="패스_2715_2_" fill="#FFFFFF" d="M493.555,134.126h-0.063v-3.634h7.684v-2.078h-7.684v-2.897h7.922v-2.078h-10.49
			V136.2h10.73v-2.078L493.555,134.126z"/>
		<path id="패스_2716_2_" fill="#FFFFFF" d="M482.063,134.457h-0.041c-2.6,0.021-4.756-2.005-4.9-4.601
			c-0.018-1.211,0.457-2.379,1.314-3.235c0.938-0.917,2.199-1.421,3.512-1.397h0.039c1.715,0.002,3.355,0.688,4.564,1.913
			l1.246-1.972c-1.615-1.419-3.689-2.203-5.84-2.207c-1.805,0.033-3.547,0.663-4.951,1.792c-1.6,1.236-2.525,3.146-2.512,5.166
			c0,4.209,3.645,6.603,7.24,6.788c2.287,0.12,4.521-0.719,6.168-2.313l-1.334-1.934
			C485.428,133.75,483.783,134.481,482.063,134.457L482.063,134.457z"/>
		<path id="패스_2717_2_" fill="#FFFFFF" d="M432.955,132.058h4.461c1.25,0.066,2.494-0.202,3.6-0.785
			c1.959-1.493,2.338-4.291,0.844-6.249c-0.229-0.301-0.494-0.57-0.791-0.804c-1.117-0.584-2.371-0.854-3.629-0.779h-7.227v12.795
			h2.742V132.058L432.955,132.058z M432.955,125.581h4.82c0.568-0.006,1.121,0.181,1.572,0.521c0.496,0.398,0.77,1.011,0.752,1.646
			c-0.008,1.205-0.988,2.181-2.195,2.172c-0.043-0.001-0.086-0.002-0.129-0.005h-4.82V125.581z"/>
		<path id="패스_2718_2_" fill="#FFFFFF" d="M403.117,127.349l0.02-0.029h0.154v8.881h2.568v-12.729h-3.244l-4.025,6.813
			l-0.055,0.092l-0.055-0.092l-4.037-6.813h-3.232V136.2h2.568v-8.886h0.154l0.018,0.03l3.879,6.359h1.412L403.117,127.349z"/>
		<path id="패스_2719_2_" fill="#FFFFFF" d="M365.414,134.566h-0.164c-1.908-0.133-3.727-0.856-5.205-2.069l-0.971,2.206
			c1.838,1.238,3.986,1.938,6.201,2.011c2.256,0,4-0.563,5.039-1.628c0.688-0.698,1.055-1.652,1.016-2.637
			c-0.041-1.787-1.172-2.866-3.563-3.397c-0.521-0.116-1.398-0.303-2.176-0.455c-0.418-0.086-0.813-0.166-1.109-0.229
			c-1.229-0.257-2.426-0.585-2.439-1.516c-0.012-0.816,0.889-1.664,2.632-1.7h0.16c1.944,0.042,3.815,0.742,5.31,1.987l1.049-2.059
			c-1.766-1.37-3.938-2.109-6.174-2.105c-1.696-0.027-3.342,0.593-4.6,1.731c-0.668,0.657-1.029,1.563-1,2.5
			c0.07,2.709,3.133,3.447,6.535,4.021h0.018c1.332,0.225,2.711,0.455,2.758,1.536c0.012,0.346-0.129,0.68-0.379,0.918
			C367.521,134.336,366.471,134.653,365.414,134.566z"/>
		<path id="패스_2720_2_" fill="#FFFFFF" d="M464.883,123.472l-5.861,12.729h2.709l1.432-3.19l0.021-0.037h6.162l0.018,0.037
			l1.432,3.19h2.744l-5.863-12.729L464.883,123.472z M468.408,130.896h-4.299l0.039-0.089l2.053-4.57l0.057-0.13l0.059,0.13
			l2.053,4.57L468.408,130.896z"/>
		<path id="패스_2721_2_" fill="#FFFFFF" d="M386.49,125.139c-3.08-2.897-7.883-2.897-10.963,0
			c-1.217,1.277-1.896,2.978-1.9,4.743c-0.014,1.888,0.793,3.688,2.211,4.937c2.982,2.525,7.354,2.525,10.338,0
			c1.42-1.247,2.227-3.048,2.215-4.937C388.387,128.116,387.707,126.419,386.49,125.139L386.49,125.139z M384.355,133.093
			c-1.863,1.813-4.832,1.813-6.693,0c-0.875-0.843-1.369-1.998-1.375-3.211c0.037-2.608,2.184-4.692,4.791-4.655
			c2.557,0.037,4.619,2.1,4.656,4.655C385.729,131.095,385.23,132.254,384.355,133.093z"/>
		<path fill="#FFFFFF" stroke="#FFFFFF" stroke-width="0.2" stroke-miterlimit="10" d="M340.572,136.437h-2.385l-7.771-9.896v9.877
			h-1.85c-0.371,0-0.558-0.116-0.558-0.354v-12.771h2.405l7.75,9.911v-9.911h1.85c0.354,0,0.541,0.113,0.557,0.343v12.801H340.572z"
			/>
		<path id="패스_2721_3_" fill="#FFFFFF" d="M323.24,125.139c-3.08-2.897-7.883-2.897-10.963,0
			c-1.217,1.277-1.896,2.978-1.9,4.743c-0.014,1.888,0.793,3.688,2.211,4.937c2.982,2.525,7.354,2.525,10.338,0
			c1.42-1.247,2.227-3.048,2.215-4.937C325.137,128.116,324.457,126.419,323.24,125.139L323.24,125.139z M321.105,133.093
			c-1.863,1.813-4.832,1.813-6.693,0c-0.875-0.843-1.37-1.998-1.375-3.211c0.037-2.608,2.184-4.692,4.791-4.655
			c2.557,0.037,4.619,2.1,4.656,4.655C322.479,131.095,321.98,132.254,321.105,133.093z"/>
		<path id="패스_2714_3_" fill="#FFFFFF" d="M355.716,134.126h-8.161v-3.634h7.688v-2.078h-7.688v-2.897h7.926v-2.078h-10.492
			V136.2h10.729L355.716,134.126L355.716,134.126z"/>
	</g>
	<g id="그룹_382_2_">
		<path id="패스_2722_2_" fill="#FFFFFF" d="M346.531,144.293c-2.295-0.032-4.184,1.795-4.219,4.092
			c-0.035,2.294,1.795,4.183,4.09,4.218c0.043,0.001,0.084,0.001,0.127,0c1.304,0.037,2.541-0.57,3.309-1.624l0.055-0.078
			l-1.174-0.856l-0.02-0.013l-0.059,0.083c-0.478,0.693-1.271,1.099-2.111,1.08c-1.516-0.029-2.721-1.281-2.691-2.798
			c0.027-1.478,1.217-2.663,2.691-2.691c0.842-0.015,1.638,0.396,2.117,1.085l0.055,0.081l1.201-0.8l0.018-0.013l-0.049-0.08
			C349.121,144.878,347.859,144.242,346.531,144.293L346.531,144.293z"/>
		<path id="패스_2723_2_" fill="#FFFFFF" d="M355.441,144.293c-2.295,0.036-4.125,1.928-4.09,4.222s1.926,4.124,4.219,4.088
			c2.27-0.035,4.09-1.884,4.09-4.152c0.061-2.236-1.705-4.097-3.941-4.156C355.626,144.288,355.533,144.289,355.441,144.293z
			 M355.441,151.193c-1.519,0.03-2.771-1.173-2.803-2.688c-0.029-1.516,1.174-2.77,2.688-2.801s2.771,1.173,2.801,2.688
			c0,0.019,0,0.037,0,0.057c0.079,1.437-1.021,2.66-2.453,2.739c-0.078,0.005-0.156,0.005-0.234,0.002v0.003H355.441z"/>
		<path id="패스_2724_2_" fill="#FFFFFF" d="M361.58,152.455h1.468v-3.34h4.087v-1.392h-4.087v-1.896h4.345v-1.392h-5.813V152.455
			z"/>
		<path id="패스_2725_2_" fill="#FFFFFF" d="M369.314,152.455h1.469v-3.34h4.086v-1.392h-4.086v-1.896h4.346v-1.392h-5.814
			V152.455L369.314,152.455z"/>
		<path id="패스_2726_2_" fill="#FFFFFF" d="M378.518,149.109h4.115v-1.381h-4.115v-1.908h4.398v-1.382h-5.863v8.017h6.064v-1.38
			h-4.6V149.109L378.518,149.109z"/>
		<path id="패스_2727_2_" fill="#FFFFFF" d="M386.59,149.109h4.115v-1.381h-4.115v-1.908h4.398v-1.382h-5.863v8.017h6.064v-1.38
			h-4.6V149.109L386.59,149.109z"/>
		<path id="패스_2728_2_" fill="#FFFFFF" d="M401.699,150.448c0.049-0.072,0.102-0.153,0.15-0.234l1.037-1.608l0.012-0.021
			l-1.1-0.685l-0.021-0.012l-1.072,1.648l-1.283-1.229c0.777-0.426,1.313-1.199,1.436-2.082c-0.029-1.104-0.947-1.979-2.053-1.946
			c-0.068,0.002-0.145,0.008-0.211,0.018c-1.139-0.112-2.148,0.716-2.27,1.852c-0.004,0.04-0.006,0.08-0.008,0.119
			c0.035,0.772,0.404,1.497,1.014,1.979c-0.77,0.479-1.27,1.287-1.35,2.188c0,1.353,0.924,2.159,2.471,2.159
			c0.902,0.012,1.771-0.361,2.385-1.025l0.928,0.88l0.006,0.007h1.984l-2.068-1.979L401.699,150.448z M398.592,145.601
			c0.516,0,0.811,0.249,0.811,0.685c0,0.399-0.439,0.777-0.926,1.128c-0.563-0.547-0.691-0.75-0.691-1.069
			c-0.02-0.392,0.273-0.727,0.662-0.747C398.494,145.591,398.545,145.593,398.592,145.601L398.592,145.601z M398.523,151.301
			c-0.645,0-1.076-0.363-1.076-0.899c0.084-0.517,0.387-0.972,0.83-1.249l1.6,1.516C399.549,151.076,399.049,151.31,398.523,151.301
			L398.523,151.301z"/>
		<path id="패스_2729_2_" fill="#FFFFFF" d="M410.641,144.438h-3.223v8.018h3.223c2.215,0.096,4.084-1.627,4.178-3.841
			c0.092-2.214-1.627-4.084-3.842-4.177C410.865,144.434,410.754,144.434,410.641,144.438z M410.641,151.063h-1.756v-5.232h1.756
			c1.445-0.025,2.641,1.12,2.668,2.565s-1.119,2.64-2.564,2.667C410.709,151.064,410.676,151.064,410.641,151.063z"/>
		<path id="패스_2730_2_" fill="#FFFFFF" d="M418.215,149.109h4.117v-1.381h-4.117v-1.908h4.4v-1.382h-5.863v8.017h6.064v-1.38
			h-4.6L418.215,149.109z"/>
		<path id="패스_2731_2_" fill="#FFFFFF" d="M428.287,147.785l-0.545-0.072c-1.115-0.156-1.551-0.425-1.551-0.945
			c0-0.648,0.656-1.068,1.672-1.068c0.768,0.006,1.516,0.233,2.156,0.654l0.084,0.055l0.738-1.169l0.014-0.02l-0.082-0.056
			c-0.857-0.57-1.869-0.873-2.9-0.857c-1.914,0-3.199,1.021-3.199,2.54c0,1.59,1.316,2.104,2.418,2.259l0.613,0.084
			c1.182,0.159,1.686,0.445,1.686,0.957c0,0.623-0.717,1.06-1.738,1.06c-0.871-0.003-1.715-0.297-2.396-0.835l-0.084-0.076
			l-0.793,1.154l-0.018,0.018l0.066,0.06c0.928,0.707,2.063,1.085,3.229,1.073c2.246,0,3.252-1.286,3.252-2.563
			C430.908,148.778,430.025,148.021,428.287,147.785L428.287,147.785z"/>
		<path id="패스_2732_2_" fill="#FFFFFF" d="M436.297,147.785l-0.545-0.072c-1.115-0.156-1.551-0.425-1.551-0.945
			c0-0.648,0.656-1.068,1.672-1.068c0.768,0.006,1.516,0.233,2.156,0.654l0.084,0.055l0.738-1.169l0.014-0.02l-0.082-0.056
			c-0.857-0.57-1.869-0.873-2.9-0.857c-1.914,0-3.199,1.021-3.199,2.54c0,1.59,1.316,2.104,2.42,2.259l0.611,0.084
			c1.184,0.159,1.688,0.445,1.688,0.957c0,0.623-0.717,1.06-1.74,1.06c-0.867-0.004-1.715-0.298-2.396-0.835l-0.084-0.076
			l-0.793,1.154l-0.016,0.018l0.066,0.06c0.928,0.708,2.064,1.086,3.23,1.073c2.244,0,3.252-1.286,3.252-2.563
			C438.918,148.778,438.035,148.021,436.297,147.785L436.297,147.785z"/>
		<path id="패스_2733_2_" fill="#FFFFFF" d="M442.307,149.109h4.115v-1.381h-4.115v-1.908h4.4v-1.382h-5.863v8.017h6.064v-1.38
			h-4.602V149.109L442.307,149.109z"/>
		<path id="패스_2734_2_" fill="#FFFFFF" d="M455.133,146.8c0-1.521-1.023-2.361-2.885-2.361h-3.338v8.018h1.467v-3.29h1.201
			l2.076,3.278l0.008,0.011h1.693l-2.225-3.378C454.273,148.925,455.129,147.952,455.133,146.8L455.133,146.8z M450.377,147.825
			v-2.005h1.836c0.957,0,1.4,0.312,1.4,0.979c0,0.697-0.445,1.022-1.4,1.022L450.377,147.825L450.377,147.825z"/>
		<path id="패스_2735_2_" fill="#FFFFFF" d="M456.438,145.83h2.547v6.625h1.471v-6.625H463v-1.392h-6.559L456.438,145.83z"/>
	</g>
</g>
<g id="img_p_logo_3_" transform="translate(-77 -122.953)">
	<g id="그룹_381_3_">
		<path id="패스_2713_3_" d="M227.189,134.079v-10.604h-2.57V136.2h11.033v-2.125h-8.463V134.079z"/>
		<path id="패스_2714_5_" d="M198.908,134.126h-8.162v-3.634h7.688v-2.078h-7.688v-2.897h7.926v-2.078H188.18V136.2h10.729
			L198.908,134.126L198.908,134.126z"/>
		<path id="패스_2715_3_" d="M272.539,134.126h-0.063v-3.634h7.684v-2.078h-7.684v-2.897h7.922v-2.078h-10.49V136.2h10.73v-2.078
			L272.539,134.126z"/>
		<path id="패스_2716_3_" d="M261.047,134.457h-0.041c-2.6,0.021-4.756-2.005-4.9-4.601c-0.018-1.211,0.457-2.379,1.313-3.235
			c0.938-0.917,2.199-1.421,3.513-1.397h0.039c1.715,0.002,3.354,0.688,4.563,1.913l1.245-1.972
			c-1.614-1.419-3.688-2.203-5.838-2.207c-1.805,0.033-3.547,0.663-4.953,1.792c-1.598,1.236-2.524,3.146-2.51,5.166
			c0,4.209,3.644,6.603,7.239,6.788c2.287,0.12,4.521-0.719,6.169-2.313l-1.334-1.934
			C264.412,133.75,262.768,134.481,261.047,134.457L261.047,134.457z"/>
		<path id="패스_2717_3_" d="M211.939,132.058h4.461c1.25,0.066,2.494-0.202,3.6-0.785c1.959-1.493,2.338-4.291,0.844-6.249
			c-0.229-0.301-0.494-0.57-0.791-0.804c-1.117-0.584-2.371-0.854-3.629-0.779h-7.227v12.795h2.742V132.058z M211.939,125.581h4.818
			c0.568-0.006,1.121,0.181,1.572,0.521c0.496,0.398,0.771,1.011,0.752,1.646c-0.008,1.205-0.986,2.181-2.193,2.172
			c-0.043-0.001-0.086-0.002-0.131-0.005h-4.818V125.581z"/>
		<path id="패스_2718_3_" d="M182.102,127.349l0.019-0.029h0.155v8.881h2.568v-12.729H181.6l-4.026,6.813l-0.054,0.092
			l-0.055-0.092l-4.037-6.813h-3.233V136.2h2.569v-8.886h0.154l0.018,0.03l3.879,6.359h1.412L182.102,127.349z"/>
		<path id="패스_2719_3_" d="M144.398,134.566h-0.164c-1.908-0.133-3.727-0.856-5.205-2.069l-0.971,2.206
			c1.838,1.238,3.986,1.938,6.201,2.011c2.256,0,4-0.563,5.039-1.628c0.688-0.698,1.055-1.652,1.016-2.637
			c-0.041-1.787-1.172-2.866-3.562-3.397c-0.522-0.116-1.399-0.303-2.175-0.455c-0.418-0.086-0.811-0.166-1.111-0.229
			c-1.227-0.257-2.426-0.585-2.439-1.516c-0.012-0.816,0.888-1.664,2.632-1.7h0.16c1.944,0.042,3.815,0.742,5.31,1.987l1.049-2.059
			c-1.766-1.37-3.938-2.109-6.174-2.105c-1.697-0.027-3.343,0.593-4.6,1.731c-0.668,0.657-1.03,1.563-1,2.5
			c0.07,2.709,3.132,3.447,6.535,4.021h0.017c1.333,0.225,2.711,0.455,2.759,1.536c0.01,0.346-0.129,0.68-0.38,0.918
			C146.506,134.336,145.454,134.653,144.398,134.566z"/>
		<path id="패스_2720_3_" d="M243.867,123.472l-5.861,12.729h2.709l1.432-3.19l0.02-0.037h6.162l0.02,0.037l1.432,3.19h2.744
			l-5.863-12.729L243.867,123.472z M247.393,130.896h-4.299l0.039-0.089l2.053-4.57l0.059-0.13l0.061,0.13l2.053,4.57
			L247.393,130.896z"/>
		<path id="패스_2721_5_" d="M165.475,125.139c-3.08-2.897-7.883-2.897-10.963,0c-1.217,1.277-1.896,2.978-1.9,4.743
			c-0.014,1.888,0.793,3.688,2.211,4.937c2.982,2.525,7.354,2.525,10.338,0c1.419-1.247,2.227-3.048,2.214-4.937
			C167.37,128.116,166.691,126.419,165.475,125.139L165.475,125.139z M163.34,133.093c-1.863,1.813-4.832,1.813-6.693,0
			c-0.875-0.843-1.37-1.998-1.375-3.211c0.037-2.608,2.184-4.692,4.791-4.655c2.557,0.037,4.619,2.1,4.656,4.655
			C164.713,131.095,164.215,132.254,163.34,133.093z"/>
		<path d="M119.656,123.629c-0.014-0.196-0.14-0.434-0.657-0.434h-1.948v9.721l-7.571-9.683l-0.03-0.039h-2.554v12.869
			c0,0.208,0.114,0.456,0.657,0.456h1.949v-9.688l7.592,9.667l0.03,0.039h2.534L119.656,123.629z"/>
		<path id="패스_2721_4_" d="M102.225,125.139c-3.08-2.897-7.883-2.897-10.963,0c-1.217,1.277-1.896,2.978-1.9,4.743
			c-0.014,1.888,0.793,3.688,2.211,4.937c2.982,2.525,7.354,2.525,10.338,0c1.419-1.247,2.227-3.048,2.214-4.937
			C104.12,128.116,103.441,126.419,102.225,125.139L102.225,125.139z M100.09,133.093c-1.863,1.813-4.832,1.813-6.693,0
			c-0.875-0.843-1.37-1.998-1.375-3.211c0.037-2.608,2.184-4.692,4.791-4.655c2.557,0.037,4.619,2.1,4.656,4.655
			C101.463,131.095,100.965,132.254,100.09,133.093z"/>
		<path id="패스_2714_4_" d="M134.7,134.126h-8.162v-3.634h7.688v-2.078h-7.688v-2.897h7.926v-2.078h-10.492V136.2H134.7V134.126
			L134.7,134.126z"/>
	</g>
	<g id="그룹_382_3_">
		<path id="패스_2722_3_" d="M125.516,144.293c-2.295-0.032-4.183,1.795-4.219,4.092c-0.035,2.294,1.795,4.183,4.09,4.218
			c0.043,0.001,0.084,0.001,0.127,0c1.304,0.037,2.541-0.57,3.309-1.624l0.054-0.078l-1.174-0.856l-0.019-0.013l-0.059,0.083
			c-0.476,0.693-1.27,1.099-2.111,1.08c-1.516-0.029-2.721-1.281-2.691-2.798c0.027-1.478,1.217-2.663,2.691-2.691
			c0.842-0.015,1.638,0.396,2.117,1.085l0.055,0.081l1.201-0.8l0.018-0.013l-0.049-0.08
			C128.105,144.878,126.844,144.242,125.516,144.293L125.516,144.293z"/>
		<path id="패스_2723_3_" d="M134.426,144.293c-2.295,0.036-4.125,1.928-4.09,4.222c0.036,2.294,1.926,4.124,4.219,4.088
			c2.27-0.035,4.09-1.884,4.09-4.152c0.06-2.236-1.705-4.097-3.941-4.156C134.61,144.288,134.518,144.289,134.426,144.293z
			 M134.426,151.193c-1.517,0.03-2.771-1.173-2.802-2.688c-0.03-1.516,1.173-2.77,2.688-2.801s2.77,1.173,2.801,2.688
			c0,0.019,0,0.037,0,0.057c0.079,1.437-1.02,2.66-2.453,2.739c-0.079,0.005-0.158,0.005-0.236,0.002v0.003H134.426z"/>
		<path id="패스_2724_3_" d="M140.564,152.455h1.468v-3.34h4.087v-1.392h-4.087v-1.896h4.345v-1.392h-5.813V152.455z"/>
		<path id="패스_2725_3_" d="M148.299,152.455h1.469v-3.34h4.086v-1.392h-4.086v-1.896h4.345v-1.392H148.3L148.299,152.455
			L148.299,152.455z"/>
		<path id="패스_2726_3_" d="M157.501,149.109h4.116v-1.381h-4.116v-1.908h4.4v-1.382h-5.864v8.017h6.064v-1.38h-4.6V149.109
			L157.501,149.109z"/>
		<path id="패스_2727_3_" d="M165.573,149.109h4.116v-1.381h-4.116v-1.908h4.399v-1.382h-5.863v8.017h6.064v-1.38h-4.6V149.109
			L165.573,149.109z"/>
		<path id="패스_2728_3_" d="M180.684,150.448c0.049-0.072,0.101-0.153,0.151-0.234l1.036-1.608l0.012-0.021l-1.1-0.685
			l-0.018-0.012l-1.073,1.648l-1.286-1.229c0.781-0.426,1.314-1.199,1.436-2.082c-0.029-1.104-0.947-1.979-2.052-1.946
			c-0.069,0.002-0.142,0.008-0.211,0.018c-1.136-0.112-2.149,0.716-2.267,1.852c-0.004,0.04-0.006,0.08-0.008,0.119
			c0.035,0.772,0.404,1.497,1.013,1.979c-0.769,0.479-1.269,1.287-1.349,2.188c0,1.353,0.924,2.159,2.471,2.159
			c0.902,0.012,1.769-0.361,2.381-1.025l0.929,0.88l0.006,0.007h1.983l-2.068-1.979L180.684,150.448z M177.575,145.601
			c0.517,0,0.812,0.249,0.812,0.685c0,0.399-0.442,0.777-0.926,1.128c-0.562-0.547-0.691-0.75-0.691-1.069
			c-0.023-0.392,0.272-0.727,0.662-0.747C177.479,145.591,177.528,145.593,177.575,145.601L177.575,145.601z M177.508,151.301
			c-0.644,0-1.076-0.363-1.076-0.899c0.084-0.517,0.387-0.972,0.83-1.249l1.6,1.516C178.532,151.076,178.033,151.31,177.508,151.301
			L177.508,151.301z"/>
		<path id="패스_2729_3_" d="M189.625,144.438h-3.223v8.018h3.223c2.215,0.096,4.084-1.627,4.178-3.841
			c0.092-2.214-1.627-4.084-3.842-4.177C189.85,144.434,189.738,144.434,189.625,144.438z M189.625,151.063h-1.756v-5.232h1.756
			c1.445-0.025,2.641,1.12,2.668,2.565s-1.119,2.64-2.564,2.667C189.693,151.064,189.66,151.064,189.625,151.063z"/>
		<path id="패스_2730_3_" d="M197.199,149.109h4.117v-1.381h-4.117v-1.908h4.4v-1.382h-5.863v8.017h6.063v-1.38h-4.6V149.109z"/>
		<path id="패스_2731_3_" d="M207.271,147.785l-0.545-0.072c-1.115-0.156-1.553-0.425-1.553-0.945
			c0-0.648,0.656-1.068,1.674-1.068c0.768,0.006,1.516,0.233,2.154,0.654l0.084,0.055l0.738-1.169l0.014-0.02l-0.082-0.056
			c-0.855-0.57-1.867-0.873-2.898-0.857c-1.914,0-3.199,1.021-3.199,2.54c0,1.59,1.316,2.104,2.418,2.259l0.613,0.084
			c1.182,0.159,1.686,0.445,1.686,0.957c0,0.623-0.717,1.06-1.738,1.06c-0.871-0.003-1.715-0.297-2.4-0.835l-0.084-0.076
			l-0.793,1.154l-0.014,0.018l0.066,0.06c0.928,0.707,2.063,1.085,3.229,1.073c2.246,0,3.252-1.286,3.252-2.563
			C209.893,148.778,209.01,148.021,207.271,147.785L207.271,147.785z"/>
		<path id="패스_2732_3_" d="M215.281,147.785l-0.545-0.072c-1.115-0.156-1.551-0.425-1.551-0.945
			c0-0.648,0.654-1.068,1.672-1.068c0.768,0.006,1.516,0.233,2.156,0.654l0.084,0.055l0.736-1.169l0.016-0.02l-0.082-0.056
			c-0.857-0.57-1.869-0.873-2.9-0.857c-1.914,0-3.199,1.021-3.199,2.54c0,1.59,1.316,2.104,2.42,2.259l0.611,0.084
			c1.184,0.159,1.688,0.445,1.688,0.957c0,0.623-0.717,1.06-1.74,1.06c-0.871-0.004-1.715-0.298-2.398-0.835l-0.084-0.076
			l-0.793,1.154l-0.014,0.018l0.066,0.06c0.928,0.708,2.063,1.086,3.229,1.073c2.246,0,3.252-1.286,3.252-2.563
			C217.902,148.778,217.02,148.021,215.281,147.785L215.281,147.785z"/>
		<path id="패스_2733_3_" d="M221.291,149.109h4.115v-1.381h-4.115v-1.908h4.4v-1.382h-5.863v8.017h6.064v-1.38h-4.604
			L221.291,149.109L221.291,149.109z"/>
		<path id="패스_2734_3_" d="M234.117,146.8c0-1.521-1.023-2.361-2.885-2.361h-3.338v8.018h1.467v-3.29h1.201l2.076,3.278
			l0.008,0.011h1.691l-2.227-3.378C233.258,148.925,234.113,147.952,234.117,146.8L234.117,146.8z M229.361,147.825v-2.005h1.836
			c0.957,0,1.4,0.312,1.4,0.979c0,0.697-0.445,1.022-1.4,1.022L229.361,147.825L229.361,147.825z"/>
		<path id="패스_2735_3_" d="M235.422,145.83h2.547v6.625h1.471v-6.625h2.545v-1.392h-6.559L235.422,145.83z"/>
	</g>
</g>
<g id="img_p_logo_1_" transform="translate(-77 -122.953)">
	<g id="그룹_381_1_">
		<path id="패스_2709_1_" d="M97.005,64.292h5.473v10.649h2.683V64.292h5.473v-2.078H97.005V64.292z"/>
		<path id="패스_2710_1_" d="M82.861,62.214L77,74.942h2.708l1.432-3.192l0.017-0.037h6.163l0.016,0.037l1.433,3.192h2.742
			L85.65,62.213L82.861,62.214L82.861,62.214z M86.387,69.637h-4.3l0.04-0.091l2.052-4.568l0.057-0.13l0.058,0.13l2.051,4.568
			L86.387,69.637z"/>
		<path id="패스_2711_1_" d="M125.5,74.942h2.59l4.4-12.73h-2.7l-2.944,9.035l-0.06,0.186l-0.06-0.186l-2.944-9.035H121.1
			l-2.944,9.035l-0.06,0.186l-0.06-0.186l-2.944-9.035h-2.7l4.4,12.73h2.608l2.98-8.738l0.06-0.176l0.06,0.176l2.98,8.738H125.5z"/>
		<path id="패스_2712_1_" d="M135.7,73.56c2.983,2.522,7.354,2.522,10.337,0c1.419-1.247,2.228-3.048,2.215-4.938
			c-0.003-1.767-0.683-3.463-1.9-4.743c-3.08-2.896-7.883-2.896-10.963,0c-1.216,1.28-1.896,2.979-1.9,4.743
			C133.476,70.511,134.282,72.313,135.7,73.56L135.7,73.56z M140.867,63.969c2.575,0.018,4.669,2.08,4.726,4.652
			c-0.004,1.213-0.501,2.372-1.378,3.211c-1.862,1.813-4.831,1.813-6.693,0c-0.875-0.84-1.372-1.998-1.376-3.211
			c0.055-2.572,2.15-4.639,4.725-4.652H140.867z"/>
		<path id="패스_2713_1_" d="M239.55,72.82V62.214h-2.569v12.729h11.033v-2.125h-8.464V72.82z"/>
		<path id="패스_2714_1_" d="M211.27,72.868h-8.162v-3.635h7.688v-2.078h-7.688v-2.899h7.927v-2.076H200.54v12.765h10.729V72.868
			L211.27,72.868z"/>
		<path id="패스_2715_1_" d="M284.9,72.868h-0.063v-3.635h7.685v-2.078h-7.685v-2.899h7.923v-2.076h-10.49v12.765H293v-2.078
			L284.9,72.868z"/>
		<path id="패스_2716_1_" d="M273.408,73.198h-0.041c-2.6,0.021-4.756-2.005-4.9-4.601c-0.018-1.211,0.457-2.379,1.313-3.235
			c0.938-0.917,2.199-1.421,3.513-1.399h0.039c1.715,0.004,3.354,0.69,4.563,1.913l1.246-1.97c-1.615-1.419-3.688-2.202-5.84-2.206
			c-1.804,0.032-3.546,0.662-4.951,1.792c-1.599,1.235-2.525,3.146-2.512,5.166c0,4.209,3.645,6.602,7.24,6.787
			c2.288,0.12,4.521-0.719,6.168-2.313l-1.334-1.933C276.773,72.492,275.129,73.222,273.408,73.198L273.408,73.198z"/>
		<path id="패스_2717_1_" d="M224.3,70.8h4.462c1.25,0.067,2.494-0.202,3.6-0.785c1.959-1.493,2.339-4.291,0.846-6.249
			c-0.229-0.301-0.495-0.57-0.792-0.806c-1.116-0.584-2.371-0.854-3.628-0.777h-7.229v12.795h2.741V70.8L224.3,70.8z M224.3,64.322
			h4.821c0.568-0.006,1.121,0.179,1.572,0.521c0.496,0.399,0.771,1.011,0.752,1.646c-0.008,1.205-0.989,2.179-2.195,2.173
			c-0.043-0.001-0.086-0.002-0.129-0.006H224.3V64.322z"/>
		<path id="패스_2718_1_" d="M194.463,66.091l0.018-0.029h0.156v8.881h2.568V62.214h-3.244l-4.027,6.813l-0.054,0.093
			l-0.054-0.093l-4.038-6.813h-3.233v12.729h2.569v-8.886h0.155l0.018,0.028l3.878,6.361h1.412L194.463,66.091z"/>
		<path id="패스_2719_1_" d="M156.759,73.307h-0.164c-1.908-0.133-3.727-0.855-5.205-2.069l-0.97,2.206
			c1.837,1.238,3.986,1.936,6.2,2.012c2.257,0,4-0.563,5.04-1.628c0.687-0.701,1.055-1.655,1.016-2.638
			c-0.041-1.787-1.173-2.866-3.562-3.399c-0.523-0.114-1.4-0.301-2.175-0.455c-0.418-0.086-0.81-0.166-1.111-0.229
			c-1.227-0.257-2.426-0.585-2.44-1.516c-0.012-0.816,0.888-1.664,2.632-1.7h0.16c1.944,0.042,3.816,0.742,5.31,1.985l1.049-2.057
			c-1.766-1.369-3.939-2.111-6.174-2.107c-1.698-0.025-3.343,0.595-4.6,1.733c-0.668,0.657-1.03,1.563-1,2.5
			c0.07,2.709,3.132,3.447,6.536,4.021h0.016c1.333,0.225,2.711,0.453,2.759,1.534c0.009,0.348-0.129,0.682-0.38,0.918
			C158.866,73.078,157.815,73.395,156.759,73.307z"/>
		<path id="패스_2720_1_" d="M256.229,62.214l-5.859,12.729h2.708l1.432-3.192l0.021-0.037h6.162l0.017,0.037l1.433,3.192h2.744
			l-5.863-12.731L256.229,62.214z M259.754,69.637h-4.3l0.04-0.091l2.052-4.568l0.058-0.13l0.061,0.13l2.052,4.568L259.754,69.637z"
			/>
		<path id="패스_2721_1_" d="M177.836,63.88c-3.08-2.896-7.884-2.896-10.964,0c-1.216,1.28-1.896,2.979-1.9,4.743
			c-0.013,1.89,0.793,3.688,2.211,4.938c2.983,2.523,7.354,2.523,10.338,0c1.419-1.247,2.227-3.048,2.214-4.938
			C179.731,66.858,179.052,65.161,177.836,63.88L177.836,63.88z M175.7,71.835c-1.862,1.813-4.831,1.813-6.692,0
			c-0.875-0.84-1.371-1.998-1.376-3.211c0.038-2.606,2.184-4.69,4.792-4.653c2.556,0.035,4.618,2.1,4.655,4.653
			C177.074,69.837,176.576,70.996,175.7,71.835z"/>
	</g>
	<g id="그룹_382_1_">
		<path id="패스_2722_1_" d="M128.876,83.035c-2.294-0.035-4.182,1.795-4.218,4.089c-0.035,2.294,1.795,4.185,4.089,4.22
			c0.043,0.001,0.085,0.001,0.128,0c1.303,0.035,2.54-0.57,3.308-1.624l0.054-0.078l-1.174-0.855l-0.019-0.014l-0.058,0.083
			c-0.476,0.691-1.27,1.1-2.111,1.08c-1.516-0.029-2.721-1.281-2.692-2.798c0.028-1.477,1.217-2.663,2.692-2.691
			c0.842-0.015,1.637,0.394,2.117,1.085l0.055,0.081l1.2-0.8l0.018-0.015l-0.049-0.078C131.467,83.62,130.205,82.984,128.876,83.035
			L128.876,83.035z"/>
		<path id="패스_2723_1_" d="M137.786,83.035c-2.294,0.035-4.125,1.925-4.089,4.219c0.036,2.294,1.925,4.124,4.219,4.09
			c2.269-0.035,4.089-1.886,4.089-4.152c0.06-2.235-1.705-4.097-3.941-4.155C137.971,83.029,137.878,83.03,137.786,83.035z
			 M137.786,89.935c-1.516,0.028-2.77-1.173-2.801-2.688c-0.031-1.517,1.173-2.771,2.688-2.802c1.516-0.03,2.77,1.174,2.801,2.688
			c0,0.019,0,0.035,0,0.057c0.079,1.435-1.019,2.66-2.453,2.739c-0.079,0.005-0.158,0.005-0.236,0.002L137.786,89.935
			L137.786,89.935z"/>
		<path id="패스_2724_1_" d="M143.926,91.196h1.467v-3.34h4.087v-1.394h-4.087V84.57h4.345v-1.392h-5.813L143.926,91.196z"/>
		<path id="패스_2725_1_" d="M151.66,91.196h1.468v-3.34h4.087v-1.394h-4.087V84.57h4.345v-1.392h-5.813V91.196z"/>
		<path id="패스_2726_1_" d="M160.862,87.851h4.116V86.47h-4.116v-1.908h4.4V83.18h-5.864v8.017h6.065v-1.38h-4.6L160.862,87.851z
			"/>
		<path id="패스_2727_1_" d="M168.934,87.851h4.116V86.47h-4.116v-1.908h4.4V83.18h-5.864v8.017h6.065v-1.38h-4.6L168.934,87.851z
			"/>
		<path id="패스_2728_1_" d="M184.045,89.19c0.048-0.071,0.1-0.152,0.151-0.233l1.036-1.609l0.012-0.021l-1.1-0.686l-0.018-0.014
			l-1.073,1.65l-1.286-1.229c0.782-0.428,1.315-1.199,1.436-2.082c-0.029-1.104-0.948-1.978-2.052-1.946
			c-0.07,0.002-0.141,0.008-0.211,0.018c-1.136-0.112-2.15,0.714-2.266,1.852c-0.004,0.04-0.007,0.08-0.008,0.119
			c0.035,0.773,0.404,1.495,1.012,1.979c-0.768,0.479-1.268,1.287-1.349,2.188c0,1.353,0.924,2.157,2.471,2.157
			c0.903,0.014,1.769-0.359,2.381-1.023l0.929,0.88l0.006,0.007h1.984l-2.069-1.979L184.045,89.19z M180.936,84.343
			c0.516,0,0.812,0.249,0.812,0.685c0,0.399-0.443,0.777-0.926,1.128c-0.562-0.547-0.692-0.75-0.692-1.071
			c-0.023-0.39,0.273-0.725,0.663-0.747C180.84,84.333,180.889,84.335,180.936,84.343L180.936,84.343z M180.869,90.043
			c-0.644,0-1.076-0.361-1.076-0.897c0.083-0.519,0.386-0.974,0.829-1.249l1.6,1.517C181.893,89.818,181.394,90.052,180.869,90.043
			L180.869,90.043z"/>
		<path id="패스_2729_1_" d="M192.986,83.179h-3.223v8.018h3.223c2.215,0.094,4.084-1.627,4.177-3.841s-1.627-4.084-3.841-4.177
			C193.211,83.176,193.1,83.176,192.986,83.179z M192.986,89.804h-1.756v-5.232h1.756c1.445-0.027,2.641,1.12,2.668,2.565
			c0.027,1.443-1.12,2.64-2.564,2.667C193.055,89.805,193.021,89.805,192.986,89.804z"/>
		<path id="패스_2730_1_" d="M200.561,87.851h4.117V86.47h-4.117v-1.908h4.4V83.18h-5.863v8.017h6.064v-1.38h-4.6L200.561,87.851z
			"/>
		<path id="패스_2731_1_" d="M210.633,86.526l-0.545-0.071c-1.115-0.159-1.551-0.426-1.551-0.946c0-0.648,0.656-1.068,1.672-1.068
			c0.768,0.006,1.516,0.231,2.156,0.654l0.084,0.055l0.738-1.169l0.013-0.021l-0.081-0.054c-0.857-0.572-1.869-0.873-2.9-0.859
			c-1.914,0-3.199,1.021-3.199,2.54c0,1.592,1.315,2.105,2.418,2.261l0.612,0.084c1.183,0.157,1.687,0.443,1.687,0.957
			c0,0.623-0.717,1.06-1.737,1.06c-0.871-0.003-1.715-0.297-2.397-0.835l-0.084-0.075l-0.793,1.153l-0.016,0.018l0.064,0.06
			c0.929,0.707,2.063,1.085,3.229,1.071c2.247,0,3.252-1.284,3.252-2.563C213.253,87.52,212.371,86.762,210.633,86.526
			L210.633,86.526z"/>
		<path id="패스_2732_1_" d="M218.643,86.526l-0.545-0.071c-1.115-0.159-1.551-0.426-1.551-0.946c0-0.648,0.656-1.068,1.672-1.068
			c0.768,0.006,1.516,0.231,2.156,0.654l0.084,0.055l0.738-1.169l0.013-0.021l-0.081-0.054c-0.857-0.572-1.869-0.873-2.9-0.859
			c-1.914,0-3.199,1.021-3.199,2.54c0,1.592,1.316,2.105,2.422,2.261l0.609,0.084c1.185,0.157,1.688,0.443,1.688,0.957
			c0,0.623-0.717,1.06-1.739,1.06c-0.869-0.004-1.716-0.298-2.398-0.835l-0.084-0.075l-0.793,1.153l-0.012,0.018l0.064,0.06
			c0.927,0.708,2.063,1.086,3.229,1.071c2.246,0,3.252-1.284,3.252-2.563C221.264,87.52,220.381,86.762,218.643,86.526
			L218.643,86.526z"/>
		<path id="패스_2733_1_" d="M224.652,87.851h4.115V86.47h-4.115v-1.908h4.397V83.18h-5.86v8.017h6.063v-1.38h-4.602v-1.966
			H224.652z"/>
		<path id="패스_2734_1_" d="M237.479,85.542c0-1.521-1.021-2.359-2.886-2.359h-3.337V91.2h1.467v-3.29h1.2L236,91.187
			l0.007,0.011h1.693l-2.224-3.378C236.619,87.667,237.475,86.693,237.479,85.542L237.479,85.542z M232.723,86.567v-2.005h1.836
			c0.957,0,1.4,0.313,1.4,0.979c0,0.699-0.445,1.024-1.4,1.024L232.723,86.567L232.723,86.567z"/>
		<path id="패스_2735_1_" d="M238.783,84.571h2.546v6.625h1.471v-6.625h2.546V83.18h-6.56L238.783,84.571z"/>
	</g>
</g>
<text transform="matrix(1 0 0 1 98.167 -67.4846)" font-family="'AdobeMyungjoStd-Medium-KSCpc-EUC-H'" font-size="12">원본</text>
<g id="img_p_logo_5_" transform="translate(-77 -122.953)">
	<g id="그룹_381_5_">
		<path id="패스_2713_5_" fill="#FFFFFF" d="M507.137,221.994V201.3h-5.014v24.832h21.527v-4.146h-16.514V221.994L507.137,221.994
			z"/>
		<path id="패스_2714_9_" fill="#FFFFFF" d="M451.955,222.086h-15.926v-7.09h14.998v-4.055h-14.998v-5.656h15.465v-4.055h-20.471
			v24.902h20.936v-4.048L451.955,222.086L451.955,222.086z"/>
		<path id="패스_2715_5_" fill="#FFFFFF" d="M595.623,222.086h-0.121v-7.09h14.99v-4.055h-14.99v-5.656h15.457v-4.055h-20.471
			v24.902h20.939v-4.056L595.623,222.086z"/>
		<path id="패스_2716_5_" fill="#FFFFFF" d="M573.197,222.731h-0.078c-5.072,0.041-9.279-3.912-9.563-8.977
			c-0.035-2.362,0.893-4.643,2.564-6.313c1.83-1.788,4.291-2.771,6.854-2.729h0.076c3.344,0.005,6.547,1.347,8.9,3.733l2.434-3.845
			c-3.152-2.771-7.199-4.299-11.395-4.308c-3.52,0.064-6.918,1.294-9.662,3.496c-3.117,2.412-4.928,6.141-4.896,10.081
			c0,8.211,7.107,12.88,14.127,13.243c4.463,0.235,8.822-1.4,12.035-4.51l-2.604-3.773
			C579.766,221.352,576.557,222.779,573.197,222.731L573.197,222.731z"/>
		<path id="패스_2717_5_" fill="#FFFFFF" d="M477.381,218.051h8.705c2.438,0.131,4.865-0.396,7.023-1.532
			c3.822-2.913,4.563-8.372,1.646-12.193c-0.445-0.586-0.965-1.11-1.543-1.566c-2.182-1.141-4.627-1.667-7.082-1.521h-14.1v24.965
			h5.35V218.051L477.381,218.051z M477.381,205.413h9.406c1.109-0.011,2.188,0.352,3.066,1.019c0.969,0.777,1.506,1.972,1.469,3.21
			c-0.016,2.352-1.93,4.254-4.283,4.237c-0.086-0.002-0.168-0.004-0.252-0.01h-9.406V205.413L477.381,205.413z"/>
		<path id="패스_2718_5_" fill="#FFFFFF" d="M419.162,208.863l0.039-0.057h0.299v17.328h5.014v-24.837h-6.33l-7.854,13.294
			l-0.107,0.18l-0.105-0.18l-7.877-13.294h-6.307v24.835h5.012v-17.339h0.299l0.035,0.061l7.568,12.41h2.756L419.162,208.863z"/>
		<path id="패스_2719_5_" fill="#FFFFFF" d="M345.598,222.945h-0.322c-3.721-0.259-7.27-1.671-10.153-4.038l-1.896,4.305
			c3.586,2.416,7.778,3.778,12.102,3.925c4.4,0,7.804-1.1,9.831-3.178c1.342-1.363,2.058-3.227,1.981-5.146
			c-0.08-3.486-2.287-5.592-6.951-6.631c-1.019-0.227-2.729-0.589-4.242-0.889c-0.816-0.167-1.584-0.323-2.168-0.446
			c-2.395-0.502-4.733-1.143-4.76-2.957c-0.022-1.595,1.734-3.248,5.135-3.318h0.314c3.793,0.082,7.443,1.449,10.358,3.877
			l2.047-4.014c-3.444-2.673-7.683-4.117-12.046-4.11c-3.313-0.054-6.521,1.157-8.975,3.38c-1.305,1.283-2.01,3.051-1.953,4.879
			c0.139,5.285,6.113,6.728,12.752,7.844h0.035c2.6,0.438,5.289,0.888,5.381,2.995c0.021,0.676-0.252,1.327-0.74,1.793
			C349.708,222.496,347.658,223.115,345.598,222.945z"/>
		<path id="패스_2720_5_" fill="#FFFFFF" d="M539.68,201.297l-11.438,24.837h5.285l2.795-6.228l0.037-0.073h12.023l0.031,0.073
			l2.795,6.228h5.355l-11.439-24.841L539.68,201.297z M546.557,215.784h-8.387l0.076-0.173l4.004-8.918l0.111-0.254l0.115,0.254
			l4.004,8.918L546.557,215.784z"/>
		<path id="패스_2721_9_" fill="#FFFFFF" d="M386.721,204.551c-6.01-5.653-15.381-5.653-21.391,0
			c-2.375,2.493-3.7,5.81-3.709,9.255c-0.025,3.683,1.548,7.194,4.313,9.632c5.82,4.927,14.352,4.927,20.172,0
			c2.771-2.435,4.344-5.946,4.322-9.632C390.422,210.359,389.096,207.047,386.721,204.551L386.721,204.551z M382.557,220.071
			c-3.637,3.537-9.43,3.537-13.063,0c-1.707-1.643-2.672-3.898-2.684-6.265c0.074-5.09,4.262-9.156,9.35-9.083
			c4.986,0.07,9.014,4.097,9.086,9.083C385.232,216.172,384.262,218.433,382.557,220.071z"/>
		<path fill="#FFFFFF" stroke="#FFFFFF" stroke-width="0.3902" stroke-miterlimit="10" d="M297.125,226.594h-4.652l-15.162-19.309
			v19.272h-3.61c-0.724,0-1.085-0.229-1.085-0.691v-24.915h4.691l15.123,19.338v-19.338h3.606c0.692,0,1.058,0.221,1.085,0.666
			v24.977H297.125z"/>
		<path id="패스_2721_8_" fill="#FFFFFF" d="M263.309,204.551c-6.01-5.653-15.381-5.653-21.392,0
			c-2.374,2.493-3.7,5.81-3.707,9.255c-0.026,3.683,1.546,7.194,4.313,9.632c5.818,4.927,14.348,4.927,20.172,0
			c2.771-2.435,4.344-5.946,4.322-9.632C267.008,210.359,265.684,207.047,263.309,204.551L263.309,204.551z M259.143,220.071
			c-3.635,3.537-9.429,3.537-13.061,0c-1.707-1.643-2.673-3.898-2.684-6.265c0.074-5.09,4.262-9.156,9.349-9.083
			c4.989,0.07,9.015,4.097,9.085,9.083C261.82,216.172,260.85,218.433,259.143,220.071z"/>
		<path id="패스_2714_8_" fill="#FFFFFF" d="M326.674,222.086H310.75v-7.09h14.999v-4.055H310.75v-5.656h15.465v-4.055h-20.473
			v24.902h20.933L326.674,222.086L326.674,222.086z"/>
	</g>
	<g id="그룹_382_5_">
		<path id="패스_2722_5_" fill="#FFFFFF" d="M308.753,241.922c-4.478-0.063-8.164,3.504-8.231,7.983
			c-0.068,4.476,3.502,8.16,7.979,8.229c0.085,0.001,0.164,0.001,0.247,0c2.545,0.071,4.959-1.113,6.456-3.171l0.106-0.15
			l-2.291-1.673l-0.037-0.023l-0.113,0.161c-0.932,1.354-2.48,2.145-4.121,2.106c-2.955-0.057-5.307-2.499-5.251-5.457
			c0.054-2.883,2.374-5.196,5.251-5.251c1.645-0.03,3.195,0.77,4.133,2.114l0.105,0.159l2.344-1.562l0.035-0.024l-0.096-0.156
			C313.807,243.065,311.344,241.824,308.753,241.922L308.753,241.922z"/>
		<path id="패스_2723_5_" fill="#FFFFFF" d="M326.139,241.922c-4.479,0.07-8.05,3.761-7.979,8.234
			c0.069,4.479,3.759,8.048,8.229,7.979c4.43-0.069,7.981-3.678,7.981-8.104c0.118-4.362-3.327-7.993-7.69-8.109
			C326.498,241.914,326.316,241.916,326.139,241.922z M326.139,255.385c-2.961,0.06-5.408-2.287-5.469-5.244
			c-0.059-2.958,2.29-5.404,5.246-5.464c2.954-0.063,5.404,2.286,5.464,5.244c0,0.035,0,0.072,0,0.109
			c0.154,2.801-1.989,5.191-4.786,5.346c-0.152,0.009-0.309,0.009-0.46,0.004v0.005H326.139L326.139,255.385z"/>
		<path id="패스_2724_5_" fill="#FFFFFF" d="M338.117,257.848h2.861v-6.517h7.975v-2.716h-7.975v-3.698h8.479v-2.716h-11.341
			V257.848z"/>
		<path id="패스_2725_5_" fill="#FFFFFF" d="M353.207,257.848h2.865v-6.517h7.974v-2.716h-7.974v-3.698h8.48v-2.716h-11.347
			L353.207,257.848L353.207,257.848z"/>
		<path id="패스_2726_5_" fill="#FFFFFF" d="M371.163,251.321h8.028v-2.694h-8.028v-3.724h8.581v-2.695h-11.438v15.642h11.832
			v-2.691h-8.976V251.321z"/>
		<path id="패스_2727_5_" fill="#FFFFFF" d="M386.914,251.321h8.029v-2.694h-8.029v-3.724h8.584v-2.695h-11.441v15.642h11.834
			v-2.691h-8.977V251.321z"/>
		<path id="패스_2728_5_" fill="#FFFFFF" d="M416.396,253.933c0.094-0.143,0.197-0.299,0.291-0.457l2.025-3.143l0.021-0.038
			l-2.145-1.337l-0.037-0.021l-2.092,3.219l-2.51-2.396c1.521-0.831,2.563-2.341,2.801-4.063c-0.057-2.155-1.848-3.857-4.006-3.797
			c-0.133,0.003-0.277,0.015-0.408,0.034c-2.221-0.224-4.193,1.395-4.428,3.609c-0.008,0.077-0.012,0.156-0.014,0.233
			c0.068,1.508,0.787,2.921,1.977,3.858c-1.502,0.938-2.477,2.514-2.633,4.271c0,2.638,1.803,4.213,4.82,4.213
			c1.76,0.022,3.453-0.705,4.648-2.002l1.811,1.717l0.012,0.015h3.873l-4.037-3.86L416.396,253.933z M410.332,244.476
			c1.008,0,1.582,0.484,1.582,1.336c0,0.779-0.861,1.517-1.807,2.2c-1.098-1.067-1.35-1.463-1.35-2.088
			c-0.041-0.764,0.533-1.415,1.293-1.458C410.143,244.458,410.24,244.461,410.332,244.476L410.332,244.476z M410.197,255.599
			c-1.256,0-2.098-0.709-2.098-1.755c0.164-1.009,0.754-1.896,1.619-2.438l3.121,2.957
			C412.199,255.158,411.225,255.616,410.197,255.599L410.197,255.599z"/>
		<path id="패스_2729_5_" fill="#FFFFFF" d="M433.842,242.208h-6.287v15.645h6.287c4.322,0.185,7.971-3.176,8.152-7.495
			c0.18-4.318-3.176-7.969-7.496-8.148C434.279,242.198,434.063,242.198,433.842,242.208z M433.842,255.134h-3.426v-10.21h3.426
			c2.82-0.053,5.152,2.186,5.207,5.005c0.053,2.819-2.186,5.15-5.004,5.205C433.977,255.135,433.912,255.135,433.842,255.134z"/>
		<path id="패스_2730_5_" fill="#FFFFFF" d="M448.621,251.321h8.033v-2.694h-8.033v-3.724h8.586v-2.695h-11.439v15.642H457.6
			v-2.691h-8.977L448.621,251.321z"/>
		<path id="패스_2731_5_" fill="#FFFFFF" d="M468.273,248.736l-1.063-0.14c-2.178-0.309-3.027-0.829-3.027-1.848
			c0-1.266,1.281-2.084,3.264-2.084c1.498,0.013,2.955,0.455,4.205,1.275l0.164,0.107l1.441-2.281l0.025-0.037l-0.158-0.107
			c-1.674-1.115-3.648-1.703-5.66-1.675c-3.734,0-6.242,1.99-6.242,4.956c0,3.102,2.57,4.107,4.719,4.407l1.195,0.163
			c2.307,0.313,3.291,0.87,3.291,1.867c0,1.218-1.4,2.068-3.395,2.068c-1.697-0.006-3.346-0.579-4.68-1.63l-0.162-0.148
			l-1.549,2.252l-0.031,0.032l0.131,0.117c1.811,1.379,4.023,2.115,6.299,2.093c4.385,0,6.346-2.51,6.346-5.001
			C473.389,250.675,471.664,249.199,468.273,248.736L468.273,248.736z"/>
		<path id="패스_2732_5_" fill="#FFFFFF" d="M483.902,248.736l-1.063-0.14c-2.178-0.309-3.025-0.829-3.025-1.848
			c0-1.266,1.279-2.084,3.262-2.084c1.496,0.013,2.957,0.455,4.207,1.275l0.164,0.107l1.439-2.281l0.027-0.037l-0.16-0.107
			c-1.674-1.115-3.646-1.703-5.658-1.675c-3.736,0-6.244,1.99-6.244,4.956c0,3.102,2.57,4.107,4.723,4.407l1.193,0.163
			c2.309,0.313,3.293,0.87,3.293,1.867c0,1.218-1.398,2.068-3.396,2.068c-1.695-0.009-3.348-0.583-4.68-1.63l-0.164-0.148
			l-1.547,2.252l-0.025,0.032l0.131,0.117c1.811,1.381,4.025,2.119,6.301,2.093c4.379,0,6.346-2.51,6.346-5.001
			C489.018,250.675,487.295,249.199,483.902,248.736L483.902,248.736z"/>
		<path id="패스_2733_5_" fill="#FFFFFF" d="M495.629,251.321h8.029v-2.694h-8.029v-3.724h8.586v-2.695h-11.439v15.642h11.832
			v-2.691h-8.979V251.321L495.629,251.321z"/>
		<path id="패스_2734_5_" fill="#FFFFFF" d="M520.654,246.817c0-2.969-1.996-4.608-5.629-4.608h-6.512v15.646h2.859v-6.42h2.346
			l4.051,6.396l0.014,0.021h3.307l-4.342-6.591C518.979,250.963,520.646,249.063,520.654,246.817L520.654,246.817z M511.375,248.816
			v-3.913h3.582c1.867,0,2.732,0.608,2.732,1.911c0,1.363-0.869,1.997-2.732,1.997L511.375,248.816L511.375,248.816z"/>
		<path id="패스_2735_5_" fill="#FFFFFF" d="M523.199,244.922h4.971v12.928h2.869v-12.928h4.965v-2.714h-12.797L523.199,244.922z"
			/>
	</g>
</g>
<g id="img_p_logo_4_" transform="translate(-77 -122.953)">
	<g id="그룹_381_4_">
		<path id="패스_2713_4_" d="M75.895,221.994V201.3h-5.014v24.832h21.526v-4.146H75.895V221.994z"/>
		<path id="패스_2714_7_" d="M20.713,222.086H4.787v-7.09h14.999v-4.055H4.787v-5.656h15.465v-4.055H-0.22v24.902h20.935v-4.048
			L20.713,222.086L20.713,222.086z"/>
		<path id="패스_2715_4_" d="M164.38,222.086h-0.121v-7.09h14.991v-4.055h-14.991v-5.656h15.457v-4.055h-20.469v24.902h20.937
			v-4.056L164.38,222.086z"/>
		<path id="패스_2716_4_" d="M141.957,222.731h-0.08c-5.073,0.041-9.279-3.912-9.562-8.977c-0.033-2.362,0.892-4.643,2.563-6.313
			c1.831-1.788,4.292-2.771,6.854-2.729h0.075c3.347,0.005,6.546,1.347,8.903,3.733l2.431-3.845
			c-3.151-2.771-7.198-4.299-11.39-4.308c-3.521,0.064-6.922,1.294-9.665,3.496c-3.118,2.412-4.929,6.141-4.896,10.081
			c0,8.211,7.107,12.88,14.124,13.243c4.464,0.235,8.821-1.4,12.038-4.51l-2.605-3.773
			C148.522,221.352,145.313,222.779,141.957,222.731L141.957,222.731z"/>
		<path id="패스_2717_4_" d="M46.14,218.051h8.703c2.439,0.131,4.867-0.396,7.024-1.532c3.822-2.913,4.562-8.372,1.646-12.193
			c-0.446-0.586-0.965-1.11-1.544-1.566c-2.18-1.141-4.626-1.667-7.081-1.521h-14.1v24.965h5.351L46.14,218.051L46.14,218.051z
			 M46.14,205.413h9.403c1.109-0.011,2.188,0.352,3.066,1.019c0.97,0.777,1.508,1.972,1.468,3.21
			c-0.015,2.352-1.927,4.254-4.281,4.237c-0.084-0.002-0.167-0.004-0.253-0.01H46.14V205.413z"/>
		<path id="패스_2718_4_" d="M-12.08,208.863l0.038-0.057h0.302v17.328h5.012v-24.837h-6.329l-7.856,13.294l-0.105,0.18
			l-0.107-0.18l-7.876-13.294h-6.31v24.835h5.013v-17.339h0.301l0.035,0.061l7.568,12.41h2.756L-12.08,208.863z"/>
		<path id="패스_2719_4_" d="M-85.646,222.945h-0.32c-3.723-0.259-7.272-1.671-10.156-4.038l-1.894,4.305
			c3.586,2.416,7.777,3.778,12.098,3.925c4.403,0,7.806-1.1,9.833-3.178c1.342-1.363,2.059-3.227,1.982-5.146
			c-0.081-3.486-2.286-5.592-6.95-6.631c-1.019-0.227-2.729-0.589-4.243-0.889c-0.815-0.167-1.583-0.323-2.169-0.446
			c-2.395-0.502-4.732-1.143-4.759-2.957c-0.022-1.595,1.732-3.248,5.137-3.318h0.312c3.793,0.082,7.444,1.449,10.36,3.877
			l2.048-4.014c-3.446-2.673-7.684-4.117-12.048-4.11c-3.311-0.054-6.522,1.157-8.975,3.38c-1.304,1.283-2.01,3.051-1.952,4.879
			c0.137,5.285,6.112,6.728,12.751,7.844h0.034c2.601,0.438,5.289,0.888,5.383,2.995c0.02,0.676-0.251,1.327-0.741,1.793
			C-81.534,222.496-83.586,223.115-85.646,222.945z"/>
		<path id="패스_2720_4_" d="M108.436,201.297l-11.435,24.837h5.284l2.794-6.228l0.035-0.073h12.024l0.035,0.073l2.794,6.228
			h5.354l-11.438-24.841L108.436,201.297z M115.314,215.784h-8.388l0.077-0.173l4.004-8.918l0.113-0.254l0.116,0.254l4.005,8.918
			L115.314,215.784z"/>
		<path id="패스_2721_7_" d="M-44.522,204.551c-6.009-5.653-15.381-5.653-21.39,0c-2.375,2.493-3.7,5.81-3.708,9.255
			c-0.027,3.683,1.547,7.194,4.315,9.632c5.817,4.927,14.349,4.927,20.171,0c2.769-2.435,4.345-5.946,4.318-9.632
			C-40.824,210.359-42.149,207.047-44.522,204.551L-44.522,204.551z M-48.688,220.071c-3.635,3.537-9.428,3.537-13.059,0
			c-1.708-1.643-2.675-3.898-2.683-6.265c0.072-5.09,4.261-9.156,9.348-9.083c4.989,0.07,9.013,4.097,9.084,9.083
			C-46.01,216.172-46.98,218.433-48.688,220.071z"/>
		<path d="M-133.923,201.603c-0.027-0.385-0.272-0.846-1.281-0.846h-3.801v18.967l-14.772-18.894l-0.058-0.076h-4.984v25.11
			c0,0.406,0.222,0.891,1.283,0.891h3.802v-18.904l14.814,18.862l0.058,0.075h4.946L-133.923,201.603z"/>
		<path id="패스_2721_6_" d="M-167.934,204.551c-6.01-5.653-15.381-5.653-21.39,0c-2.375,2.493-3.7,5.81-3.708,9.255
			c-0.027,3.683,1.547,7.194,4.313,9.632c5.819,4.927,14.35,4.927,20.172,0c2.769-2.435,4.345-5.946,4.32-9.632
			C-164.236,210.359-165.562,207.047-167.934,204.551L-167.934,204.551z M-172.1,220.071c-3.635,3.537-9.428,3.537-13.059,0
			c-1.708-1.643-2.673-3.898-2.683-6.265c0.073-5.09,4.261-9.156,9.348-9.083c4.99,0.07,9.013,4.097,9.085,9.083
			C-169.421,216.172-170.394,218.433-172.1,220.071z"/>
		<path id="패스_2714_6_" d="M-104.569,222.086h-15.925v-7.09h15v-4.055h-15v-5.656h15.464v-4.055h-20.471v24.902h20.932V222.086
			L-104.569,222.086z"/>
	</g>
	<g id="그룹_382_4_">
		<path id="패스_2722_4_" d="M-122.489,241.922c-4.478-0.063-8.162,3.504-8.232,7.983c-0.068,4.476,3.502,8.16,7.98,8.229
			c0.083,0.001,0.164,0.001,0.247,0c2.544,0.071,4.958-1.113,6.457-3.171l0.106-0.15l-2.291-1.673l-0.037-0.023l-0.115,0.161
			c-0.929,1.354-2.479,2.145-4.12,2.106c-2.958-0.057-5.31-2.499-5.251-5.457c0.054-2.883,2.375-5.196,5.251-5.251
			c1.643-0.03,3.196,0.77,4.131,2.114l0.107,0.159l2.344-1.562l0.033-0.024l-0.095-0.156
			C-117.438,243.065-119.897,241.824-122.489,241.922L-122.489,241.922z"/>
		<path id="패스_2723_4_" d="M-105.104,241.922c-4.478,0.07-8.048,3.761-7.98,8.234c0.07,4.479,3.759,8.048,8.232,7.979
			c4.429-0.069,7.98-3.678,7.98-8.104c0.117-4.362-3.327-7.993-7.689-8.109C-104.745,241.914-104.924,241.916-105.104,241.922z
			 M-105.104,255.385c-2.959,0.06-5.407-2.287-5.467-5.244c-0.058-2.958,2.289-5.404,5.245-5.464
			c2.957-0.063,5.405,2.286,5.465,5.244c0,0.035,0,0.072,0,0.109c0.155,2.801-1.99,5.191-4.785,5.346
			c-0.154,0.009-0.309,0.009-0.461,0.004v0.005H-105.104L-105.104,255.385z"/>
		<path id="패스_2724_4_" d="M-93.128,257.848h2.865v-6.517h7.974v-2.716h-7.974v-3.698h8.478v-2.716h-11.343V257.848
			L-93.128,257.848z"/>
		<path id="패스_2725_4_" d="M-78.036,257.848h2.867v-6.517h7.973v-2.716h-7.973v-3.698h8.478v-2.716h-11.342v15.646H-78.036z"/>
		<path id="패스_2726_4_" d="M-60.081,251.321h8.032v-2.694h-8.032v-3.724h8.586v-2.695h-11.441v15.642h11.832v-2.691h-8.977
			V251.321L-60.081,251.321z"/>
		<path id="패스_2727_4_" d="M-44.33,251.321h8.031v-2.694h-8.031v-3.724h8.583v-2.695h-11.44v15.642h11.832v-2.691h-8.975
			V251.321z"/>
		<path id="패스_2728_4_" d="M-14.846,253.933c0.095-0.143,0.197-0.299,0.295-0.457l2.021-3.143l0.022-0.038l-2.145-1.337
			l-0.036-0.021l-2.095,3.219l-2.51-2.396c1.526-0.831,2.565-2.341,2.803-4.063c-0.056-2.155-1.848-3.857-4.004-3.797
			c-0.133,0.003-0.277,0.015-0.411,0.034c-2.218-0.224-4.192,1.395-4.423,3.609c-0.007,0.077-0.012,0.156-0.017,0.233
			c0.068,1.508,0.788,2.921,1.977,3.858c-1.501,0.938-2.477,2.514-2.631,4.271c0,2.638,1.803,4.213,4.82,4.213
			c1.76,0.022,3.453-0.705,4.645-2.002l1.814,1.717l0.012,0.015h3.867l-4.034-3.86L-14.846,253.933z M-20.911,244.476
			c1.008,0,1.584,0.484,1.584,1.336c0,0.779-0.864,1.517-1.808,2.2c-1.096-1.067-1.349-1.463-1.349-2.088
			c-0.044-0.764,0.532-1.415,1.294-1.458C-21.1,244.458-21.004,244.461-20.911,244.476L-20.911,244.476z M-21.044,255.599
			c-1.256,0-2.099-0.709-2.099-1.755c0.165-1.009,0.755-1.896,1.619-2.438l3.121,2.957
			C-19.045,255.158-20.017,255.616-21.044,255.599L-21.044,255.599z"/>
		<path id="패스_2729_4_" d="M2.6,242.208h-6.287v15.645H2.6c4.322,0.185,7.969-3.176,8.152-7.495
			c0.179-4.318-3.176-7.969-7.498-8.148C3.038,242.198,2.82,242.198,2.6,242.208z M2.6,255.134h-3.426v-10.21H2.6
			c2.82-0.053,5.152,2.186,5.206,5.005c0.053,2.819-2.185,5.15-5.005,5.205C2.732,255.135,2.669,255.135,2.6,255.134z"/>
		<path id="패스_2730_4_" d="M17.379,251.321h8.033v-2.694h-8.033v-3.724h8.586v-2.695h-11.44v15.642h11.831v-2.691H17.38
			L17.379,251.321z"/>
		<path id="패스_2731_4_" d="M37.03,248.736l-1.063-0.14c-2.177-0.309-3.027-0.829-3.027-1.848c0-1.266,1.28-2.084,3.265-2.084
			c1.497,0.013,2.956,0.455,4.205,1.275l0.164,0.107l1.44-2.281l0.025-0.037l-0.16-0.107c-1.67-1.115-3.645-1.703-5.656-1.675
			c-3.735,0-6.242,1.99-6.242,4.956c0,3.102,2.568,4.107,4.718,4.407l1.197,0.163c2.305,0.313,3.288,0.87,3.288,1.867
			c0,1.218-1.399,2.068-3.392,2.068c-1.7-0.006-3.347-0.579-4.685-1.63l-0.163-0.148l-1.548,2.252l-0.026,0.032l0.13,0.117
			c1.809,1.379,4.023,2.115,6.3,2.093c4.383,0,6.345-2.51,6.345-5.001C42.146,250.675,40.423,249.199,37.03,248.736L37.03,248.736z"
			/>
		<path id="패스_2732_4_" d="M52.66,248.736l-1.063-0.14c-2.176-0.309-3.026-0.829-3.026-1.848c0-1.266,1.278-2.084,3.263-2.084
			c1.498,0.013,2.958,0.455,4.208,1.275l0.163,0.107l1.438-2.281l0.03-0.037l-0.161-0.107c-1.674-1.115-3.646-1.703-5.659-1.675
			c-3.734,0-6.243,1.99-6.243,4.956c0,3.102,2.57,4.107,4.724,4.407l1.192,0.163c2.309,0.313,3.293,0.87,3.293,1.867
			c0,1.218-1.398,2.068-3.396,2.068c-1.701-0.009-3.346-0.583-4.683-1.63l-0.164-0.148l-1.547,2.252l-0.024,0.032l0.13,0.117
			c1.81,1.381,4.023,2.119,6.298,2.093c4.384,0,6.346-2.51,6.346-5.001C57.775,250.675,56.051,249.199,52.66,248.736L52.66,248.736z
			"/>
		<path id="패스_2733_4_" d="M64.386,251.321h8.029v-2.694h-8.029v-3.724h8.587v-2.695H61.531v15.642h11.833v-2.691h-8.979
			L64.386,251.321L64.386,251.321z"/>
		<path id="패스_2734_4_" d="M89.412,246.817c0-2.969-1.996-4.608-5.629-4.608H77.27v15.646h2.861v-6.42h2.345l4.051,6.396
			l0.017,0.021h3.301l-4.342-6.591C87.735,250.963,89.405,249.063,89.412,246.817L89.412,246.817z M80.132,248.816v-3.913h3.583
			c1.866,0,2.733,0.608,2.733,1.911c0,1.363-0.869,1.997-2.733,1.997L80.132,248.816L80.132,248.816z"/>
		<path id="패스_2735_4_" d="M91.958,244.922h4.969v12.928h2.87v-12.928h4.965v-2.714H91.965L91.958,244.922z"/>
	</g>
</g>
<g>
	<g>
		<rect x="-502.474" y="410.184" width="476.866" height="114"/>
		<rect x="-502.474" y="524.184" fill="#D60037" width="238.433" height="179.722"/>
		<rect x="-264.042" y="230.463" fill="#D60037" width="238.433" height="179.722"/>
		<rect x="-264.042" y="524.184" fill="#54565A" width="238.433" height="179.722"/>
		<rect x="-502.474" y="230.463" fill="#54565A" width="238.433" height="179.722"/>
	</g>
	<g id="img_p_logo_6_" transform="translate(-77 -122.953)">
		<g id="그룹_381_6_">
			<path id="패스_2713_6_" fill="#FFFFFF" d="M-104.723,579.855v-20.693h-5.014v24.832h21.527v-4.146h-16.514V579.855
				L-104.723,579.855z"/>
			<path id="패스_2714_11_" fill="#FFFFFF" d="M-159.905,579.947h-15.926v-7.09h14.998v-4.055h-14.998v-5.656h15.465v-4.055
				h-20.471v24.902h20.936v-4.048L-159.905,579.947L-159.905,579.947z"/>
			<path id="패스_2715_6_" fill="#FFFFFF" d="M-16.237,579.947h-0.121v-7.09h14.99v-4.055h-14.99v-5.656h15.457v-4.055h-20.471
				v24.902h20.939v-4.056L-16.237,579.947z"/>
			<path id="패스_2716_6_" fill="#FFFFFF" d="M-38.663,580.592h-0.078c-5.072,0.041-9.279-3.912-9.563-8.977
				c-0.035-2.362,0.893-4.643,2.564-6.313c1.83-1.788,4.291-2.771,6.854-2.729h0.076c3.344,0.005,6.547,1.347,8.9,3.733l2.434-3.845
				c-3.152-2.771-7.199-4.299-11.395-4.308c-3.52,0.064-6.918,1.294-9.662,3.496c-3.117,2.412-4.928,6.141-4.896,10.081
				c0,8.211,7.107,12.88,14.127,13.243c4.463,0.235,8.822-1.4,12.035-4.51l-2.604-3.773
				C-32.094,579.214-35.303,580.64-38.663,580.592L-38.663,580.592z"/>
			<path id="패스_2717_6_" fill="#FFFFFF" d="M-134.479,575.913h8.705c2.438,0.131,4.865-0.396,7.023-1.532
				c3.822-2.913,4.563-8.372,1.646-12.193c-0.445-0.586-0.965-1.11-1.543-1.566c-2.182-1.141-4.627-1.667-7.082-1.521h-14.1v24.965
				h5.35V575.913L-134.479,575.913z M-134.479,563.274h9.406c1.109-0.011,2.188,0.352,3.066,1.019
				c0.969,0.777,1.506,1.972,1.469,3.21c-0.016,2.352-1.93,4.254-4.283,4.237c-0.086-0.002-0.168-0.004-0.252-0.01h-9.406V563.274
				L-134.479,563.274z"/>
			<path id="패스_2718_6_" fill="#FFFFFF" d="M-192.698,566.724l0.039-0.057h0.299v17.328h5.014v-24.837h-6.33l-7.854,13.294
				l-0.107,0.18l-0.105-0.18l-7.877-13.294h-6.307v24.835h5.012v-17.339h0.299l0.035,0.061l7.568,12.41h2.756L-192.698,566.724z"/>
			<path id="패스_2719_6_" fill="#FFFFFF" d="M-266.262,580.806h-0.322c-3.721-0.259-7.27-1.671-10.153-4.038l-1.896,4.305
				c3.586,2.416,7.778,3.778,12.102,3.925c4.4,0,7.804-1.1,9.831-3.178c1.342-1.363,2.058-3.227,1.981-5.146
				c-0.08-3.486-2.287-5.592-6.951-6.631c-1.019-0.227-2.729-0.589-4.242-0.889c-0.816-0.167-1.584-0.323-2.168-0.446
				c-2.395-0.502-4.733-1.143-4.76-2.957c-0.022-1.595,1.734-3.248,5.135-3.318h0.314c3.793,0.082,7.443,1.449,10.358,3.877
				l2.047-4.014c-3.444-2.673-7.683-4.117-12.046-4.11c-3.313-0.054-6.521,1.157-8.975,3.38c-1.305,1.283-2.01,3.051-1.953,4.879
				c0.139,5.285,6.113,6.728,12.752,7.844h0.035c2.6,0.438,5.289,0.888,5.381,2.995c0.021,0.676-0.252,1.327-0.74,1.793
				C-262.152,580.357-264.202,580.976-266.262,580.806z"/>
			<path id="패스_2720_6_" fill="#FFFFFF" d="M-72.18,559.159l-11.438,24.837h5.285l2.795-6.228l0.037-0.073h12.023l0.031,0.073
				l2.795,6.228h5.355l-11.439-24.841L-72.18,559.159z M-65.303,573.645h-8.387l0.076-0.173l4.004-8.918l0.111-0.254l0.115,0.254
				l4.004,8.918L-65.303,573.645z"/>
			<path id="패스_2721_11_" fill="#FFFFFF" d="M-225.139,562.413c-6.01-5.653-15.381-5.653-21.391,0
				c-2.375,2.493-3.7,5.81-3.709,9.255c-0.025,3.683,1.548,7.194,4.313,9.632c5.82,4.927,14.352,4.927,20.172,0
				c2.771-2.435,4.344-5.946,4.322-9.632C-221.438,568.22-222.764,564.909-225.139,562.413L-225.139,562.413z M-229.303,577.932
				c-3.637,3.537-9.43,3.537-13.063,0c-1.707-1.643-2.672-3.898-2.684-6.265c0.074-5.09,4.262-9.156,9.35-9.083
				c4.986,0.07,9.014,4.097,9.086,9.083C-226.627,574.033-227.598,576.295-229.303,577.932z"/>
			<path fill="#FFFFFF" stroke="#FFFFFF" stroke-width="0.3902" stroke-miterlimit="10" d="M-314.735,584.456h-4.652l-15.162-19.309
				v19.272h-3.61c-0.724,0-1.085-0.229-1.085-0.691v-24.915h4.691l15.123,19.338v-19.338h3.606c0.692,0,1.058,0.221,1.085,0.666
				v24.977H-314.735z"/>
			<path id="패스_2721_10_" fill="#FFFFFF" d="M-348.551,562.413c-6.01-5.653-15.381-5.653-21.392,0
				c-2.374,2.493-3.7,5.81-3.707,9.255c-0.026,3.683,1.546,7.194,4.313,9.632c5.818,4.927,14.348,4.927,20.172,0
				c2.771-2.435,4.344-5.946,4.322-9.632C-344.852,568.22-346.176,564.909-348.551,562.413L-348.551,562.413z M-352.717,577.932
				c-3.635,3.537-9.429,3.537-13.061,0c-1.707-1.643-2.673-3.898-2.684-6.265c0.074-5.09,4.262-9.156,9.349-9.083
				c4.989,0.07,9.015,4.097,9.085,9.083C-350.04,574.033-351.01,576.295-352.717,577.932z"/>
			<path id="패스_2714_10_" fill="#FFFFFF" d="M-285.186,579.947h-15.924v-7.09h14.999v-4.055h-14.999v-5.656h15.465v-4.055
				h-20.473v24.902h20.933L-285.186,579.947L-285.186,579.947z"/>
		</g>
		<g id="그룹_382_6_">
			<path id="패스_2722_6_" fill="#FFFFFF" d="M-303.107,599.783c-4.478-0.063-8.164,3.504-8.231,7.983
				c-0.068,4.476,3.502,8.16,7.979,8.229c0.085,0.001,0.164,0.001,0.247,0c2.545,0.071,4.959-1.113,6.456-3.171l0.106-0.15
				l-2.291-1.673l-0.037-0.023l-0.113,0.161c-0.932,1.354-2.48,2.145-4.121,2.106c-2.955-0.057-5.307-2.499-5.251-5.457
				c0.054-2.883,2.374-5.196,5.251-5.251c1.645-0.03,3.195,0.77,4.133,2.114l0.105,0.159l2.344-1.562l0.035-0.024l-0.096-0.156
				C-298.053,600.926-300.516,599.685-303.107,599.783L-303.107,599.783z"/>
			<path id="패스_2723_6_" fill="#FFFFFF" d="M-285.721,599.783c-4.479,0.07-8.05,3.761-7.979,8.234
				c0.069,4.479,3.759,8.048,8.229,7.979c4.43-0.069,7.981-3.678,7.981-8.104c0.118-4.362-3.327-7.993-7.69-8.109
				C-285.362,599.775-285.543,599.777-285.721,599.783z M-285.721,613.247c-2.961,0.06-5.408-2.287-5.469-5.244
				c-0.059-2.958,2.29-5.404,5.246-5.464c2.954-0.063,5.404,2.286,5.464,5.244c0,0.035,0,0.072,0,0.109
				c0.154,2.801-1.989,5.191-4.786,5.346c-0.152,0.009-0.309,0.009-0.46,0.004v0.005H-285.721L-285.721,613.247z"/>
			<path id="패스_2724_6_" fill="#FFFFFF" d="M-273.743,615.71h2.861v-6.517h7.975v-2.716h-7.975v-3.698h8.479v-2.716h-11.341
				V615.71z"/>
			<path id="패스_2725_6_" fill="#FFFFFF" d="M-258.653,615.71h2.865v-6.517h7.974v-2.716h-7.974v-3.698h8.48v-2.716h-11.347
				L-258.653,615.71L-258.653,615.71z"/>
			<path id="패스_2726_6_" fill="#FFFFFF" d="M-240.697,609.182h8.028v-2.694h-8.028v-3.724h8.581v-2.695h-11.438v15.642h11.832
				v-2.691h-8.976V609.182z"/>
			<path id="패스_2727_6_" fill="#FFFFFF" d="M-224.946,609.182h8.029v-2.694h-8.029v-3.724h8.584v-2.695h-11.441v15.642h11.834
				v-2.691h-8.977V609.182z"/>
			<path id="패스_2728_6_" fill="#FFFFFF" d="M-195.463,611.795c0.094-0.143,0.197-0.299,0.291-0.457l2.025-3.143l0.021-0.038
				l-2.145-1.337l-0.037-0.021l-2.092,3.219l-2.51-2.396c1.521-0.831,2.563-2.341,2.801-4.063c-0.057-2.155-1.848-3.857-4.006-3.797
				c-0.133,0.003-0.277,0.015-0.408,0.034c-2.221-0.224-4.193,1.395-4.428,3.609c-0.008,0.077-0.012,0.156-0.014,0.233
				c0.068,1.508,0.787,2.921,1.977,3.858c-1.502,0.938-2.477,2.514-2.633,4.271c0,2.638,1.803,4.213,4.82,4.213
				c1.76,0.022,3.453-0.705,4.648-2.002l1.811,1.717l0.012,0.015h3.873l-4.037-3.86L-195.463,611.795z M-201.528,602.338
				c1.008,0,1.582,0.484,1.582,1.336c0,0.779-0.861,1.517-1.807,2.2c-1.098-1.067-1.35-1.463-1.35-2.088
				c-0.041-0.764,0.533-1.415,1.293-1.458C-201.717,602.319-201.62,602.322-201.528,602.338L-201.528,602.338z M-201.663,613.461
				c-1.256,0-2.098-0.709-2.098-1.755c0.164-1.009,0.754-1.896,1.619-2.438l3.121,2.957
				C-199.661,613.019-200.635,613.477-201.663,613.461L-201.663,613.461z"/>
			<path id="패스_2729_6_" fill="#FFFFFF" d="M-178.018,600.069h-6.287v15.645h6.287c4.322,0.185,7.971-3.176,8.152-7.495
				c0.18-4.318-3.176-7.969-7.496-8.148C-177.581,600.059-177.797,600.059-178.018,600.069z M-178.018,612.996h-3.426v-10.21h3.426
				c2.82-0.053,5.152,2.186,5.207,5.005c0.053,2.819-2.186,5.15-5.004,5.205C-177.883,612.997-177.948,612.997-178.018,612.996z"/>
			<path id="패스_2730_6_" fill="#FFFFFF" d="M-163.239,609.182h8.033v-2.694h-8.033v-3.724h8.586v-2.695h-11.439v15.642h11.832
				v-2.691h-8.977L-163.239,609.182z"/>
			<path id="패스_2731_6_" fill="#FFFFFF" d="M-143.586,606.597l-1.063-0.14c-2.178-0.309-3.027-0.829-3.027-1.848
				c0-1.266,1.281-2.084,3.264-2.084c1.498,0.013,2.955,0.455,4.205,1.275l0.164,0.107l1.441-2.281l0.025-0.037l-0.158-0.107
				c-1.674-1.115-3.648-1.703-5.66-1.675c-3.734,0-6.242,1.99-6.242,4.956c0,3.102,2.57,4.107,4.719,4.407l1.195,0.163
				c2.307,0.313,3.291,0.87,3.291,1.867c0,1.218-1.4,2.068-3.395,2.068c-1.697-0.006-3.346-0.579-4.68-1.63l-0.162-0.148
				l-1.549,2.252l-0.031,0.032l0.131,0.117c1.811,1.379,4.023,2.115,6.299,2.093c4.385,0,6.346-2.51,6.346-5.001
				C-138.471,608.537-140.196,607.06-143.586,606.597L-143.586,606.597z"/>
			<path id="패스_2732_6_" fill="#FFFFFF" d="M-127.958,606.597l-1.063-0.14c-2.178-0.309-3.025-0.829-3.025-1.848
				c0-1.266,1.279-2.084,3.262-2.084c1.496,0.013,2.957,0.455,4.207,1.275l0.164,0.107l1.439-2.281l0.027-0.037l-0.16-0.107
				c-1.674-1.115-3.646-1.703-5.658-1.675c-3.736,0-6.244,1.99-6.244,4.956c0,3.102,2.57,4.107,4.723,4.407l1.193,0.163
				c2.309,0.313,3.293,0.87,3.293,1.867c0,1.218-1.398,2.068-3.396,2.068c-1.695-0.009-3.348-0.583-4.68-1.63l-0.164-0.148
				l-1.547,2.252l-0.025,0.032l0.131,0.117c1.811,1.381,4.025,2.119,6.301,2.093c4.379,0,6.346-2.51,6.346-5.001
				C-122.842,608.537-124.565,607.06-127.958,606.597L-127.958,606.597z"/>
			<path id="패스_2733_6_" fill="#FFFFFF" d="M-116.231,609.182h8.029v-2.694h-8.029v-3.724h8.586v-2.695h-11.439v15.642h11.832
				v-2.691h-8.979V609.182L-116.231,609.182z"/>
			<path id="패스_2734_6_" fill="#FFFFFF" d="M-91.206,604.678c0-2.969-1.996-4.608-5.629-4.608h-6.512v15.646h2.859v-6.42h2.346
				l4.051,6.396l0.014,0.021h3.307l-4.342-6.591C-92.881,608.824-91.213,606.924-91.206,604.678L-91.206,604.678z M-100.485,606.677
				v-3.913h3.582c1.867,0,2.732,0.608,2.732,1.911c0,1.363-0.869,1.997-2.732,1.997L-100.485,606.677L-100.485,606.677z"/>
			<path id="패스_2735_6_" fill="#FFFFFF" d="M-88.661,602.783h4.971v12.928h2.869v-12.928h4.965v-2.714h-12.797L-88.661,602.783z
				"/>
		</g>
	</g>
</g>
<g id="img_p_logo_7_" transform="translate(-77 -122.953)">
	<g id="그룹_381_7_">
		<path id="패스_2713_7_" d="M810.538,628.609v-46.021h-11.149v55.226h47.872v-9.222h-36.723V628.609z"/>
		<path id="패스_2714_13_" d="M687.818,628.814H652.4v-15.768h33.356v-9.018H652.4v-12.578h34.393v-9.019h-45.529v55.382h46.559
			v-9.002h-0.004V628.814z"/>
		<path id="패스_2715_7_" d="M1007.322,628.814h-0.27v-15.768h33.339v-9.018h-33.339v-12.578h34.375v-9.019h-45.521v55.382h46.561
			v-9.021L1007.322,628.814z"/>
		<path id="패스_2716_7_" d="M957.455,630.249h-0.178c-11.279,0.092-20.636-8.7-21.266-19.963
			c-0.072-5.253,1.984-10.324,5.701-14.04c4.071-3.977,9.544-6.164,15.242-6.071h0.166c7.445,0.011,14.56,2.996,19.8,8.304
			l5.406-8.551c-7.006-6.161-16.007-9.561-25.33-9.579c-7.829,0.143-15.394,2.877-21.494,7.774
			c-6.933,5.364-10.962,13.656-10.89,22.42c0,18.261,15.807,28.644,31.413,29.452c9.925,0.523,19.616-3.115,26.77-10.03
			l-5.792-8.392C972.054,627.183,964.918,630.356,957.455,630.249L957.455,630.249z"/>
		<path id="패스_2717_7_" d="M744.368,619.842h19.353c5.425,0.291,10.823-0.88,15.621-3.408
			c8.501-6.479,10.146-18.618,3.662-27.116c-0.994-1.304-2.148-2.47-3.436-3.484c-4.848-2.536-10.288-3.707-15.746-3.384h-31.358
			v55.521h11.899v-18.128H744.368z M744.368,591.734h20.91c2.467-0.023,4.864,0.782,6.818,2.266
			c2.157,1.729,3.354,4.385,3.265,7.139c-0.032,5.229-4.285,9.461-9.521,9.424c-0.187-0.005-0.371-0.009-0.562-0.021h-20.91V591.734
			z"/>
		<path id="패스_2718_7_" d="M614.89,599.408l0.084-0.126h0.671v38.536h11.146v-55.235h-14.073l-17.472,29.565l-0.232,0.398
			l-0.239-0.398l-17.517-29.565h-14.031v55.231h11.147v-38.561h0.669l0.078,0.134l16.83,27.6h6.129L614.89,599.408z"/>
		<path id="패스_2719_7_" d="M451.283,630.725h-0.71c-8.28-0.576-16.174-3.717-22.587-8.98l-4.211,9.573
			c7.975,5.373,17.297,8.402,26.904,8.728c9.79,0,17.361-2.445,21.868-7.066c2.984-3.032,4.58-7.176,4.406-11.443
			c-0.178-7.753-5.082-12.436-15.454-14.746c-2.268-0.504-6.07-1.31-9.437-1.977c-1.813-0.371-3.521-0.719-4.823-0.992
			c-5.326-1.117-10.524-2.541-10.586-6.577c-0.048-3.546,3.853-7.223,11.426-7.379h0.692c8.436,0.183,16.556,3.223,23.041,8.622
			l4.555-8.927c-7.662-5.944-17.088-9.155-26.794-9.141c-7.364-0.12-14.506,2.573-19.961,7.517c-2.897,2.854-4.469,6.784-4.34,10.85
			c0.306,11.755,13.592,14.962,28.357,17.444h0.076c5.784,0.973,11.763,1.975,11.972,6.661c0.044,1.503-0.559,2.951-1.648,3.988
			C460.43,629.725,455.866,631.103,451.283,630.725z"/>
		<path id="패스_2720_7_" d="M882.906,582.583l-25.43,55.235h11.752l6.214-13.85l0.075-0.163h26.744l0.076,0.163l6.213,13.85
			h11.906l-25.436-55.244L882.906,582.583z M898.205,614.799h-18.656l0.172-0.385l8.904-19.833l0.251-0.565l0.26,0.565l8.906,19.833
			L898.205,614.799z"/>
		<path id="패스_2721_13_" d="M542.742,589.819c-13.364-12.572-34.205-12.572-47.571,0c-5.281,5.545-8.226,12.92-8.246,20.582
			c-0.058,8.19,3.442,16,9.598,21.421c12.935,10.956,31.91,10.956,44.858,0c6.157-5.415,9.662-13.225,9.602-21.421
			C550.965,602.735,548.021,595.371,542.742,589.819L542.742,589.819z M533.478,624.334c-8.083,7.866-20.969,7.866-29.043,0
			c-3.8-3.653-5.949-8.671-5.967-13.933c0.161-11.319,9.477-20.363,20.789-20.199c11.096,0.156,20.045,9.109,20.201,20.199
			C539.433,615.661,537.274,620.692,533.478,624.334z"/>
		<path d="M343.921,583.262c-0.062-0.855-0.605-1.881-2.849-1.881h-8.453v42.182l-32.853-42.019l-0.129-0.169h-11.082v55.843
			c0,0.903,0.49,1.981,2.851,1.981h8.455v-42.042l32.946,41.947l0.131,0.168h10.997L343.921,583.262z"/>
		<path id="패스_2721_12_" d="M268.284,589.819c-13.365-12.572-34.206-12.572-47.571,0c-5.282,5.545-8.227,12.92-8.244,20.582
			c-0.061,8.19,3.44,16,9.591,21.421c12.944,10.956,31.914,10.956,44.862,0c6.157-5.415,9.662-13.225,9.605-21.421
			C276.506,602.735,273.557,595.371,268.284,589.819L268.284,589.819z M259.02,624.334c-8.084,7.866-20.967,7.866-29.044,0
			c-3.799-3.653-5.944-8.671-5.966-13.933c0.161-11.319,9.476-20.363,20.788-20.199c11.098,0.156,20.046,9.109,20.204,20.199
			C264.977,615.661,262.811,620.692,259.02,624.334z"/>
		<path id="패스_2714_12_" d="M409.203,628.814h-35.417v-15.768h33.357v-9.018h-33.357v-12.578h34.392v-9.019H362.65v55.382
			h46.553V628.814L409.203,628.814z"/>
	</g>
	<g id="그룹_382_7_">
		<path id="패스_2722_7_" d="M369.351,672.927c-9.96-0.141-18.152,7.792-18.309,17.755c-0.151,9.953,7.789,18.146,17.746,18.301
			c0.185,0.002,0.365,0.002,0.549,0c5.658,0.158,11.027-2.476,14.36-7.052l0.234-0.334l-5.095-3.721l-0.08-0.052l-0.256,0.357
			c-2.065,3.013-5.515,4.77-9.164,4.686c-6.578-0.127-11.81-5.558-11.677-12.137c0.119-6.411,5.281-11.556,11.677-11.677
			c3.653-0.067,7.109,1.711,9.188,4.702l0.238,0.353l5.213-3.473l0.074-0.054l-0.213-0.347
			C380.583,675.47,375.115,672.711,369.351,672.927L369.351,672.927z"/>
		<path id="패스_2723_7_" d="M408.013,672.927c-9.96,0.156-17.9,8.363-17.748,18.313c0.156,9.962,8.359,17.897,18.309,17.745
			c9.849-0.153,17.746-8.179,17.746-18.023c0.26-9.701-7.4-17.776-17.099-18.034C408.81,672.91,408.413,672.914,408.013,672.927z
			 M408.013,702.87c-6.58,0.133-12.027-5.086-12.157-11.662c-0.131-6.579,5.088-12.019,11.662-12.151
			c6.576-0.14,12.021,5.084,12.153,11.662c0,0.078,0,0.16,0,0.243c0.346,6.229-4.426,11.545-10.642,11.889
			c-0.342,0.02-0.686,0.02-1.025,0.009v0.011H408.013L408.013,702.87z"/>
		<path id="패스_2724_7_" d="M434.646,708.346h6.37v-14.491h17.734v-6.04h-17.734v-8.225h18.855v-6.04h-25.226V708.346
			L434.646,708.346z"/>
		<path id="패스_2725_7_" d="M468.208,708.346h6.377v-14.491h17.733v-6.04h-17.733v-8.225h18.854v-6.04h-25.224v34.796H468.208z"
			/>
		<path id="패스_2726_7_" d="M508.139,693.831h17.864v-5.992h-17.864v-8.28h19.095v-5.995h-25.442v34.786h26.313v-5.985h-19.966
			V693.831L508.139,693.831z"/>
		<path id="패스_2727_7_" d="M543.168,693.831h17.86v-5.992h-17.86v-8.28h19.088v-5.995h-25.443v34.786h26.314v-5.985h-19.959
			V693.831z"/>
		<path id="패스_2728_7_" d="M608.739,699.64c0.211-0.317,0.438-0.665,0.656-1.017l4.495-6.988l0.047-0.085l-4.769-2.974
			l-0.083-0.048l-4.658,7.159l-5.582-5.33c3.396-1.849,5.706-5.205,6.233-9.037c-0.124-4.793-4.109-8.578-8.904-8.443
			c-0.295,0.006-0.614,0.032-0.914,0.076c-4.932-0.498-9.321,3.101-9.836,8.026c-0.016,0.172-0.026,0.348-0.037,0.52
			c0.152,3.353,1.751,6.495,4.396,8.58c-3.338,2.086-5.507,5.59-5.851,9.497c0,5.866,4.009,9.369,10.721,9.369
			c3.913,0.05,7.679-1.567,10.329-4.452l4.035,3.818l0.025,0.032h8.601l-8.972-8.584L608.739,699.64z M595.25,678.609
			c2.243,0,3.523,1.076,3.523,2.971c0,1.733-1.923,3.373-4.021,4.893c-2.437-2.374-3.002-3.253-3.002-4.644
			c-0.096-1.698,1.184-3.146,2.88-3.242C594.831,678.567,595.044,678.574,595.25,678.609L595.25,678.609z M594.955,703.345
			c-2.793,0-4.668-1.577-4.668-3.903c0.365-2.243,1.677-4.217,3.601-5.42l6.941,6.576
			C599.4,702.364,597.237,703.382,594.955,703.345L594.955,703.345z"/>
		<path id="패스_2729_7_" d="M647.535,673.563h-13.98v34.792h13.98c9.613,0.411,17.723-7.062,18.131-16.668
			c0.399-9.604-7.063-17.722-16.675-18.122C648.512,673.542,648.026,673.542,647.535,673.563z M647.535,702.311h-7.618v-22.706
			h7.618c6.273-0.116,11.459,4.86,11.581,11.131c0.117,6.27-4.86,11.454-11.134,11.575
			C647.831,702.313,647.689,702.313,647.535,702.311z"/>
		<path id="패스_2730_7_" d="M680.404,693.831h17.864v-5.992h-17.864v-8.28h19.095v-5.995h-25.441v34.786h26.31v-5.985h-19.961
			L680.404,693.831z"/>
		<path id="패스_2731_7_" d="M724.105,688.082l-2.363-0.311c-4.841-0.686-6.733-1.844-6.733-4.109c0-2.814,2.85-4.635,7.263-4.635
			c3.329,0.029,6.574,1.013,9.353,2.837l0.364,0.239l3.201-5.073l0.057-0.083l-0.356-0.238c-3.713-2.48-8.105-3.788-12.579-3.726
			c-8.305,0-13.882,4.427-13.882,11.022c0,6.898,5.712,9.135,10.494,9.802l2.663,0.362c5.125,0.694,7.31,1.935,7.31,4.152
			c0,2.708-3.11,4.601-7.543,4.601c-3.78-0.014-7.442-1.289-10.418-3.625l-0.364-0.33l-3.44,5.008l-0.058,0.071l0.287,0.261
			c4.022,3.066,8.948,4.704,14.012,4.654c9.749,0,14.109-5.581,14.109-11.121C735.484,692.395,731.651,689.111,724.105,688.082
			L724.105,688.082z"/>
		<path id="패스_2732_7_" d="M758.867,688.082l-2.363-0.311c-4.841-0.686-6.733-1.844-6.733-4.109
			c0-2.814,2.846-4.635,7.259-4.635c3.331,0.029,6.578,1.013,9.358,2.837l0.363,0.239l3.196-5.073l0.067-0.083l-0.358-0.238
			c-3.723-2.48-8.107-3.788-12.584-3.726c-8.305,0-13.886,4.427-13.886,11.022c0,6.898,5.716,9.135,10.507,9.802l2.649,0.362
			c5.137,0.694,7.323,1.935,7.323,4.152c0,2.708-3.107,4.601-7.552,4.601c-3.78-0.021-7.44-1.297-10.413-3.625l-0.365-0.33
			l-3.44,5.008l-0.054,0.071l0.288,0.261c4.027,3.071,8.948,4.713,14.01,4.654c9.746,0,14.111-5.581,14.111-11.121
			C770.242,692.395,766.407,689.111,758.867,688.082L758.867,688.082z"/>
		<path id="패스_2733_7_" d="M784.946,693.831H802.8v-5.992h-17.854v-8.28h19.094v-5.995h-25.445v34.786h26.313v-5.985h-19.967
			L784.946,693.831L784.946,693.831z"/>
		<path id="패스_2734_7_" d="M840.6,683.814c0-6.602-4.438-10.249-12.518-10.249h-14.486v34.795h6.363v-14.277h5.217l9.009,14.224
			l0.036,0.047h7.344l-9.658-14.657C836.868,693.033,840.583,688.809,840.6,683.814L840.6,683.814z M819.962,688.26v-8.702h7.968
			c4.149,0,6.078,1.353,6.078,4.249c0,3.032-1.933,4.442-6.078,4.442L819.962,688.26L819.962,688.26z"/>
		<path id="패스_2735_7_" d="M846.262,679.599h11.053v28.75h6.381v-28.75h11.04v-6.036h-28.458L846.262,679.599z"/>
	</g>
</g>
</svg>
